<svg width="32" height="32" viewBox="0 0 32 32" fill="none" xmlns="http://www.w3.org/2000/svg">
<path d="M8.00002 25.3333H13.3334M24 25.3453V25.3333M2.66669 8C2.66669 3.58667 3.58669 2.66667 8.00002 2.66667H24C28.4134 2.66667 29.3334 3.58667 29.3334 8V24C29.3334 28.4133 28.4134 29.3333 24 29.3333H8.00002C3.58669 29.3333 2.66669 28.4133 2.66669 24V8Z" stroke="#101828" stroke-width="2.4" stroke-linecap="round" stroke-linejoin="round"/>
<path d="M16 18.6666C18.9455 18.6666 21.3334 16.2788 21.3334 13.3333C21.3334 10.3878 18.9455 7.99998 16 7.99998C13.0545 7.99998 10.6667 10.3878 10.6667 13.3333C10.6667 16.2788 13.0545 18.6666 16 18.6666Z" stroke="#101828" stroke-width="2.4" stroke-linecap="round" stroke-linejoin="round"/>
<path d="M20.6667 13.3333H22.6667M16 18V20M11.3334 13.3333H9.33337M16 8.66665V6.66665" stroke="#101828" stroke-width="2.4" stroke-linecap="round" stroke-linejoin="round"/>
</svg>
