<svg width="32" height="32" viewBox="0 0 32 32" fill="none" xmlns="http://www.w3.org/2000/svg">
<path d="M23.6667 9.33333C23.6667 9.06812 23.5613 8.81376 23.3738 8.62623C23.1863 8.43869 22.9319 8.33333 22.6667 8.33333C22.4015 8.33333 22.1471 8.43869 21.9596 8.62623C21.772 8.81376 21.6667 9.06812 21.6667 9.33333V12C21.6667 12.2652 21.772 12.5196 21.9596 12.7071C22.1471 12.8946 22.4015 13 22.6667 13C22.9319 13 23.1863 12.8946 23.3738 12.7071C23.5613 12.5196 23.6667 12.2652 23.6667 12V9.33333ZM23.6667 18.6667C23.6667 18.4014 23.5613 18.1471 23.3738 17.9596C23.1863 17.772 22.9319 17.6667 22.6667 17.6667C22.4015 17.6667 22.1471 17.772 21.9596 17.9596C21.772 18.1471 21.6667 18.4014 21.6667 18.6667V21.3333C21.6667 21.5985 21.772 21.8529 21.9596 22.0404C22.1471 22.228 22.4015 22.3333 22.6667 22.3333C22.9319 22.3333 23.1863 22.228 23.3738 22.0404C23.5613 21.8529 23.6667 21.5985 23.6667 21.3333V18.6667Z" fill="#101828"/>
<path fill-rule="evenodd" clip-rule="evenodd" d="M16.0746 1.66667H15.9253C13.4746 1.66667 11.5333 1.66667 10.0146 1.87067C8.45198 2.08133 7.18665 2.524 6.18798 3.52133C5.19065 4.52 4.74798 5.78533 4.53731 7.348C4.33331 8.868 4.33331 10.808 4.33331 13.2587V17.408C4.33331 19.8587 4.33331 21.8 4.53731 23.3187C4.74798 24.8813 5.19065 26.1467 6.18798 27.1453C6.80131 27.7573 7.51331 28.16 8.33331 28.4293V29.3333C8.33331 29.8853 8.78131 30.3333 9.33331 30.3333H10.6666C10.9319 30.3333 11.1862 30.228 11.3738 30.0404C11.5613 29.8529 11.6666 29.5985 11.6666 29.3333V28.9387C12.876 29 14.2866 29 15.9253 29H16.0746C17.7146 29 19.124 29 20.3333 28.9387V29.3333C20.3333 29.8853 20.7813 30.3333 21.3333 30.3333H22.6666C22.9319 30.3333 23.1862 30.228 23.3738 30.0404C23.5613 29.8529 23.6666 29.5985 23.6666 29.3333V28.4293C24.4866 28.16 25.2 27.7573 25.812 27.1453C26.8093 26.1467 27.252 24.8813 27.4626 23.3187C27.6666 21.7987 27.6666 19.8587 27.6666 17.408V13.26C27.6666 10.8093 27.6666 8.868 27.4626 7.34933C27.252 5.78667 26.8093 4.52133 25.812 3.52267C24.8133 2.52533 23.548 2.08267 21.9853 1.872C20.4653 1.668 18.5253 1.668 16.0746 1.668M7.60265 4.936C8.16665 4.372 8.93998 4.03333 10.2813 3.85333C11.652 3.66933 13.4573 3.66667 16 3.66667C18.5426 3.66667 20.3493 3.66933 21.72 3.85333C23.06 4.03333 23.8333 4.372 24.3973 4.936C24.9613 5.5 25.3 6.27333 25.48 7.61467C25.664 8.98533 25.6666 10.7907 25.6666 13.3333V14.3333H6.33331V13.3333C6.33331 10.7907 6.33598 8.98533 6.51998 7.61333C6.69998 6.27333 7.03865 5.5 7.60265 4.936ZM6.33331 16.3333H25.6666V17.3333C25.6666 19.876 25.664 21.6827 25.48 23.0533C25.3 24.3933 24.9613 25.1667 24.3973 25.7307C23.8333 26.2947 23.06 26.6333 21.7186 26.8133C20.348 26.9973 18.5426 27 16 27C13.4573 27 11.652 26.9973 10.28 26.8133C8.93998 26.6333 8.16665 26.2947 7.60265 25.7307C7.03865 25.1667 6.69998 24.3933 6.51998 23.052C6.33598 21.6827 6.33331 19.876 6.33331 17.3333V16.3333Z" fill="#101828"/>
</svg>
