<svg xmlns="http://www.w3.org/2000/svg" xmlns:xlink="http://www.w3.org/1999/xlink" version="1.1" x="0px" y="0px" viewBox="0 0 100 125" style="enable-background:new 0 0 100 100;" xml:space="preserve"><g><path d="M86.8,54.2l-6.5-1.8l-6.6-10.8h6c0.5,0,0.9-0.4,0.9-0.9V34c0-0.2-0.1-0.5-0.3-0.6l-5.7-5.6c-0.2-0.2-0.4-0.3-0.6-0.3H34.8   v-2.4c0-0.5-0.4-0.9-0.9-0.9H21.5c-0.5,0-0.9,0.4-0.9,0.9v2.4h-5.3c-0.5,0-0.9,0.4-0.9,0.9v40.5c0,0.5,0.4,0.9,0.9,0.9h5.6   c0.6,3.2,3.5,5.7,6.9,5.7c3.4,0,6.3-2.4,6.9-5.7h3.6h12.7h4.4h11.7c0.6,3.2,3.5,5.7,6.9,5.7c3.4,0,6.3-2.4,6.9-5.7h5.6   c0.5,0,0.9-0.4,0.9-0.9V55.1C87.5,54.7,87.2,54.3,86.8,54.2z M73.9,45.2l4.2,7H62.6v-7L73.9,45.2C73.8,45.2,73.9,45.2,73.9,45.2z    M22.4,26H33v1.5H22.4V26z M21.5,29.3h12.4h39.8l5.1,5.1v5.5H55.5c-0.5,0-0.9,0.4-0.9,0.9v19.1H52V40.7c0-0.5-0.4-0.9-0.9-0.9H38.3   c-0.5,0-0.9,0.4-0.9,0.9v18.2l-4.7-4.7c-0.2-0.2-0.4-0.3-0.6-0.3H16.2V29.3H21.5z M52,61.6h2.6V68H52V61.6z M16.2,55.7h15.4   l5.7,5.7c0,0,0,0,0.1,0V68h-2.6c-0.2-3.7-3.3-6.6-7-6.6c-3.7,0-6.8,2.9-7,6.6h-4.6V55.7z M27.8,73.7c-2.9,0-5.2-2.3-5.2-5.2   s2.3-5.2,5.2-5.2s5.2,2.3,5.2,5.2S30.7,73.7,27.8,73.7z M39.2,68V41.6h10.9V68H39.2z M74.1,73.7c-2.9,0-5.2-2.3-5.2-5.2   s2.3-5.2,5.2-5.2s5.2,2.3,5.2,5.2S77,73.7,74.1,73.7z M85.7,68h-4.6c-0.2-3.7-3.3-6.6-7-6.6c-3.7,0-6.8,2.9-7,6.6H56.4v-7.1   c0-0.1,0-0.1,0-0.2s0-0.1,0-0.2v-19h15.3l1.1,1.8H61.7c-0.5,0-0.9,0.4-0.9,0.9v8.8c0,0.5,0.4,0.9,0.9,0.9h17.7c0,0,0.1,0.1,0.1,0.1   l6.2,1.7V68z"/><path d="M27.8,65.2c-1.8,0-3.3,1.5-3.3,3.3s1.5,3.3,3.3,3.3s3.3-1.5,3.3-3.3S29.6,65.2,27.8,65.2z M27.8,69.9   c-0.8,0-1.5-0.7-1.5-1.5c0-0.8,0.7-1.5,1.5-1.5c0.8,0,1.5,0.7,1.5,1.5C29.3,69.2,28.6,69.9,27.8,69.9z"/><path d="M74.1,65.2c-1.8,0-3.3,1.5-3.3,3.3s1.5,3.3,3.3,3.3s3.3-1.5,3.3-3.3S75.9,65.2,74.1,65.2z M74.1,69.9   c-0.8,0-1.5-0.7-1.5-1.5c0-0.8,0.7-1.5,1.5-1.5c0.8,0,1.5,0.7,1.5,1.5C75.6,69.2,74.9,69.9,74.1,69.9z"/><path d="M20.5,51.3h12.3c0.5,0,0.9-0.4,0.9-0.9v-9.7c0-0.5-0.4-0.9-0.9-0.9H20.5c-0.5,0-0.9,0.4-0.9,0.9v9.7   C19.6,50.9,20,51.3,20.5,51.3z M31.9,49.5h-4.3v-7.9h4.3V49.5z M21.4,41.6h4.3v7.9h-4.3V41.6z"/><path d="M64.3,35.1h7.4c0.5,0,0.9-0.4,0.9-0.9s-0.4-0.9-0.9-0.9h-7.4c-0.5,0-0.9,0.4-0.9,0.9S63.8,35.1,64.3,35.1z"/><path d="M59.5,55.5c-0.5,0-0.9,0.4-0.9,0.9v2.8c0,0.5,0.4,0.9,0.9,0.9s0.9-0.4,0.9-0.9v-2.8C60.4,55.9,60,55.5,59.5,55.5z"/><path d="M47.6,53.7c-0.7,0-1.3,0.6-1.3,1.3s0.6,1.3,1.3,1.3s1.3-0.6,1.3-1.3S48.3,53.7,47.6,53.7z"/></g></svg>