<svg width="32" height="32" viewBox="0 0 32 32" fill="none" xmlns="http://www.w3.org/2000/svg">
<path d="M26.6667 5.33333H5.33335C3.86059 5.33333 2.66669 6.52724 2.66669 8V22.6667C2.66669 24.1394 3.86059 25.3333 5.33335 25.3333H26.6667C28.1394 25.3333 29.3334 24.1394 29.3334 22.6667V8C29.3334 6.52724 28.1394 5.33333 26.6667 5.33333Z" stroke="#101828" stroke-width="2" stroke-linecap="round" stroke-linejoin="round"/>
<path d="M17.3333 10.6667H9.33333C8.59695 10.6667 8 11.2636 8 12V18.6667C8 19.403 8.59695 20 9.33333 20H17.3333C18.0697 20 18.6667 19.403 18.6667 18.6667V12C18.6667 11.2636 18.0697 10.6667 17.3333 10.6667Z" stroke="#101828" stroke-width="2" stroke-linecap="round" stroke-linejoin="round"/>
<path d="M24 10.6667V20M8 25.3333V28M24 25.3333V28" stroke="#101828" stroke-width="2" stroke-linecap="round" stroke-linejoin="round"/>
</svg>
