<?xml version="1.0" encoding="iso-8859-1"?>
<!-- Uploaded to: SVG Repo, www.svgrepo.com, Generator: SVG Repo Mixer Tools -->
<svg version="1.1" id="Layer_1" xmlns="http://www.w3.org/2000/svg" xmlns:xlink="http://www.w3.org/1999/xlink" 
	 viewBox="0 0 481.386 481.386" xml:space="preserve">
<path style="fill:#E0623E;" d="M420.68,56.693H248.56c-5.352,0-10.344,2.672-13.312,7.128L208,104.693H40c-17.672,0-32,14.328-32,32
	v216c0,8.84,7.16,16,16,16h304v-176h129.384c11.04,0,18.76-10.912,15.088-21.328l-36.704-104
	C433.512,60.973,427.464,56.693,420.68,56.693z"/>
<path style="fill:#FCB641;" d="M420.68,56.693H248.56c-5.352,0-10.344,2.672-13.312,7.128L208,104.693H40c-17.672,0-32,14.328-32,32
	v216c0,8.84,7.16,16,16,16h304v-176h129.384c11.04,0,18.76-10.912,15.088-21.328l-36.704-104
	C433.512,60.973,427.464,56.693,420.68,56.693z"/>
<g>
	<path style="fill:#BD8931;" d="M56.808,368.693c-0.528,2.584-0.808,5.256-0.808,8c0,22.088,17.912,40,40,40s40-17.912,40-40
		c0-2.744-0.28-5.416-0.808-8H56.808z"/>
	<path style="fill:#BD8931;" d="M344.808,368.693c-0.528,2.584-0.808,5.256-0.808,8c0,22.088,17.912,40,40,40s40-17.912,40-40
		c0-2.744-0.28-5.416-0.808-8H344.808z"/>
</g>
<polygon style="fill:#FEF9F7;" points="440,192.693 328,192.693 328,264.693 456,264.693 "/>
<rect x="328" y="264.693" style="fill:#FCB641;" width="128" height="56"/>
<g>
	<path style="fill:#E67F33;" d="M328,368.693h128c8.84,0,16-7.16,16-16v-16c0-8.84-7.16-16-16-16H328V368.693z"/>
	<path style="fill:#E67F33;" d="M296,368.693h-96v-160c0-8.84,7.16-16,16-16h64c8.84,0,16,7.16,16,16V368.693z"/>
</g>
<g>
	<circle style="fill:#FEF9F7;" cx="248" cy="240.693" r="16"/>
	<path style="fill:#FEF9F7;" d="M168,256.693H40v-48c0-8.84,7.16-16,16-16h112V256.693z"/>
</g>
<path style="fill:#E67F33;" d="M152,288.693H40v-32h128v16C168,281.533,160.84,288.693,152,288.693z"/>
<path style="fill:#FEF9F7;" d="M393.24,136.693H256.016c-6.712,0-10.44-7.76-6.248-13l19.2-24c1.52-1.896,3.816-3,6.248-3H378.84
	c2.808,0,5.416,1.472,6.856,3.888l14.4,24C403.296,129.909,399.456,136.693,393.24,136.693z"/>
<g>
	<path style="fill:#132C47;" d="M328,376.693H24c-13.232,0-24-10.768-24-24v-216c0-22.056,17.944-40,40-40h163.72l24.872-37.312
		c4.464-6.688,11.928-10.688,19.968-10.688h172.12c10.16,0,19.248,6.432,22.632,16.016l36.712,104
		c2.584,7.336,1.448,15.504-3.048,21.848c-4.488,6.344-11.816,10.136-19.592,10.136H336v168
		C336,373.109,332.424,376.693,328,376.693z M40,112.693c-13.232,0-24,10.768-24,24v216c0,4.408,3.584,8,8,8h296v-168
		c0-4.416,3.576-8,8-8h129.384c2.632,0,5.016-1.232,6.528-3.384c1.52-2.144,1.888-4.8,1.016-7.28l-36.712-104
		c-1.12-3.192-4.152-5.336-7.536-5.336H248.56c-2.68,0-5.168,1.336-6.656,3.56l-27.248,40.872c-1.488,2.232-3.984,3.568-6.656,3.568
		H40z"/>
	<path style="fill:#132C47;" d="M464,314.165v-49.472c0-0.336-0.152-0.624-0.192-0.952c-0.032-0.264,0.064-0.52,0.008-0.784
		l-13.84-62.264h7.408c7.776,0,15.104-3.792,19.592-10.144c4.496-6.344,5.632-14.512,3.048-21.848l-36.712-104
		c-3.384-9.576-12.48-16.008-22.632-16.008H248.56c-8.04,0-15.504,4-19.968,10.688L203.72,96.693H40c-22.056,0-40,17.944-40,40v216
		c0,13.232,10.768,24,24,24h24c0,16.688,8.568,31.392,21.52,40H40c-4.424,0-8,3.584-8,8s3.576,8,8,8h168c4.424,0,8-3.584,8-8
		s-3.576-8-8-8h-85.52c12.96-8.608,21.52-23.312,21.52-40h192c0,16.688,8.568,31.392,21.52,40H328c-4.424,0-8,3.584-8,8s3.576,8,8,8
		h120c4.424,0,8-3.584,8-8s-3.576-8-8-8h-37.52c12.96-8.608,21.52-23.312,21.52-40h24c13.232,0,24-10.768,24-24v-16
		C480,326.277,473.288,317.477,464,314.165z M336,272.693h16v8c0,4.416,3.576,8,8,8s8-3.584,8-8v-8h55.976c0.008,0,0.016,0,0.024,0
		s0.016,0,0.024,0H448v40H336V272.693z M446.024,256.693H429.76l-6.176-18.528c-1.4-4.192-5.88-6.472-10.12-5.056
		c-4.184,1.4-6.456,5.928-5.056,10.12l4.496,13.464H336v-56h97.584L446.024,256.693z M96,408.693c-17.648,0-32-14.352-32-32h16
		c0,8.84,7.16,16,16,16s16-7.16,16-16h16C128,394.341,113.648,408.693,96,408.693z M135.192,360.693H56.808H24c-4.416,0-8-3.592-8-8
		v-216c0-13.232,10.768-24,24-24h168c2.672,0,5.168-1.336,6.656-3.56l27.248-40.872c1.488-2.232,3.976-3.568,6.656-3.568h172.12
		c3.384,0,6.416,2.144,7.536,5.336l36.712,104c0.872,2.48,0.504,5.136-1.016,7.28c-1.512,2.152-3.896,3.384-6.528,3.384H440H328
		c-4.424,0-8,3.584-8,8v72v56v40h-16v-152c0-13.232-10.768-24-24-24h-64c-13.232,0-24,10.768-24,24v152H135.192z M208,360.693v-152
		c0-4.408,3.584-8,8-8h64c4.416,0,8,3.592,8,8v152H208z M384,408.693c-17.648,0-32-14.352-32-32h16c0,8.84,7.16,16,16,16
		s16-7.16,16-16h16C416,394.341,401.648,408.693,384,408.693z M464,352.693c0,4.408-3.584,8-8,8h-32.808H344.8H336v-32h120
		c4.416,0,8,3.592,8,8V352.693z"/>
	<path style="fill:#132C47;" d="M248,216.693c-13.232,0-24,10.768-24,24s10.768,24,24,24s24-10.768,24-24
		S261.232,216.693,248,216.693z M248,248.693c-4.416,0-8-3.592-8-8s3.584-8,8-8s8,3.592,8,8
		C256,245.101,252.416,248.693,248,248.693z"/>
	<path style="fill:#132C47;" d="M264,280.693c-4.424,0-8,3.584-8,8v8c0,4.416,3.576,8,8,8s8-3.584,8-8v-8
		C272,284.277,268.424,280.693,264,280.693z"/>
	<path style="fill:#132C47;" d="M168,184.693H56c-13.232,0-24,10.768-24,24v48v32c0,4.416,3.576,8,8,8h112c13.232,0,24-10.768,24-24
		v-16v-64C176,188.277,172.424,184.693,168,184.693z M48,208.693c0-4.408,3.584-8,8-8h104v48H48V208.693z M160,272.693
		c0,4.408-3.584,8-8,8H48v-16h112V272.693z"/>
	<path style="fill:#132C47;" d="M256.648,144.693h137.216c5.84,0,11.048-3.032,13.928-8.12c2.872-5.088,2.8-11.112-0.208-16.112
		l-14.4-24c-2.872-4.792-8.128-7.768-13.712-7.768H275.84c-4.888,0-9.448,2.192-12.496,6l-19.2,24
		c-3.872,4.848-4.608,11.336-1.92,16.928S250.448,144.693,256.648,144.693z M275.84,104.693h103.624l14.448,24H256.648
		L275.84,104.693z"/>
	<path style="fill:#132C47;" d="M40,160.693h128c4.424,0,8-3.584,8-8s-3.576-8-8-8H40c-4.424,0-8,3.584-8,8
		S35.576,160.693,40,160.693z"/>
	<path style="fill:#132C47;" d="M296,416.693h-16c-4.424,0-8,3.584-8,8s3.576,8,8,8h16c4.424,0,8-3.584,8-8
		S300.424,416.693,296,416.693z"/>
	<path style="fill:#132C47;" d="M56,320.693H40c-4.424,0-8,3.584-8,8s3.576,8,8,8h16c4.424,0,8-3.584,8-8S60.424,320.693,56,320.693
		z"/>
</g>
</svg>